<?xml version="1.0" encoding="utf-8"?>
<!-- Generator: Adobe Illustrator 18.1.1, SVG Export Plug-In . SVG Version: 6.00 Build 0)  -->
<svg version="1.1" id="Layer_1" xmlns="http://www.w3.org/2000/svg" xmlns:xlink="http://www.w3.org/1999/xlink" x="0px" y="0px"
	 viewBox="0 0 648.2 125.7" enable-background="new 0 0 648.2 125.7" xml:space="preserve">
<g>
	<g>
		<path fill="#2277BB" d="M273.8,24.1h4.6c3.8,0,7.1,2.4,8.3,6l12.7,38.1c2.7,8,14,8,16.7,0L329,30.1c1.2-3.6,4.6-6,8.3-6h4.6
			c4.3,0,8,3.1,8.7,7.3l13.7,81.5c0.9,5.4-3.2,10.2-8.7,10.2h-0.4c-4.3,0-8-3.1-8.7-7.3L343,95.1c-1.5-9-14.1-10-17-1.3l-7.9,23.5
			c-1.2,3.6-4.6,6-8.3,6h-4c-3.8,0-7.1-2.4-8.3-6l-7.8-23.5c-2.9-8.7-15.4-7.7-17,1.3l-3.6,20.9c-0.7,4.2-4.4,7.3-8.7,7.3h-0.6
			c-5.5,0-9.6-4.9-8.7-10.3l14.1-81.5C265.9,27.1,269.6,24.1,273.8,24.1z"/>
		<path fill="#2277BB" d="M391.3,24.1h1.1c4.9,0,8.8,3.9,8.8,8.8v81.5c0,4.9-3.9,8.8-8.8,8.8h-1.1c-4.9,0-8.8-3.9-8.8-8.8V32.8
			C382.6,28,386.5,24.1,391.3,24.1z"/>
		<path fill="#2277BB" d="M470.5,43.6l-0.5,0.4c-3.3,2.9-8.3,3-11.6,0c-3.3-3-6.6-4.5-9.9-4.5c-2.5,0-4.5,0.7-6.1,2
			s-2.4,2.8-2.4,4.5c0,1.7,0.6,3.2,1.7,4.7c1.5,2,6.1,6.2,13.8,12.7c7.2,6,11.6,9.8,13.1,11.4c3.8,3.9,6.5,7.6,8.1,11.1
			s2.4,7.4,2.4,11.6c0,8.1-2.8,14.8-8.4,20.1c-5.6,5.3-13,8-22,8c-7.1,0-13.2-1.7-18.4-5.2c-3.1-2-5.9-4.7-8.4-8.1
			c-3.1-4.1-1.9-10.1,2.5-12.8l1.1-0.7c3.8-2.3,8.6-1.4,11.4,2c3.7,4.5,7.8,6.8,12.3,6.8c3.2,0,6-0.9,8.2-2.8
			c2.2-1.9,3.3-4.1,3.3-6.5c0-2.2-0.8-4.5-2.5-6.7c-1.7-2.2-5.3-5.7-11-10.3c-10.8-8.8-17.8-15.6-20.9-20.4
			c-3.2-4.8-4.7-9.6-4.7-14.3c0-6.9,2.6-12.8,7.9-17.7c5.2-4.9,11.7-7.4,19.4-7.4c4.9,0,9.7,1.1,14.1,3.4c2.4,1.2,5,3.1,7.7,5.4
			C474.5,33.9,474.5,40.1,470.5,43.6z"/>
		<path fill="#2277BB" d="M499.1,24.1h37.2c4.9,0,8.8,3.9,8.8,8.8v1c0,4.9-3.9,8.8-8.8,8.8h-0.5c-4.9,0-8.8,3.9-8.8,8.8v62.9
			c0,4.9-3.9,8.8-8.8,8.8h-1.5c-4.9,0-8.8-3.9-8.8-8.8V51.4c0-4.9-3.9-8.8-8.8-8.8l0,0c-4.9,0-8.8-3.9-8.8-8.8v-1
			C490.3,28,494.2,24.1,499.1,24.1z"/>
		<path fill="#2277BB" d="M645.5,47.7l-0.6,0.6c-3.2,3-8.1,3.3-11.5,0.6c-7.5-6.1-15.8-9.1-24.8-9.1c-9.5,0-17.4,3.2-23.9,9.7
			c-6.5,6.5-9.7,14.5-9.7,23.9c0,6.6,1.4,12.5,4.3,17.6s6.9,9.2,12.2,12.1s11.1,4.4,17.5,4.4c5.5,0,10.5-1,15-3.1
			c2.8-1.3,5.8-3.2,9-5.7c3.6-2.9,8.7-2.6,11.9,0.7l0.6,0.6c3.6,3.7,3.2,9.7-0.8,12.9c-4.7,3.8-9.3,6.7-13.7,8.5
			c-6.5,2.8-13.9,4.1-22.3,4.1c-15.4,0-28-4.9-37.8-14.7c-9.8-9.8-14.7-22.3-14.7-37.6c0-9.9,2.2-18.7,6.7-26.3s10.9-13.9,19.2-18.5
			c8.3-4.7,17.3-7,26.9-7c8.2,0,16,1.7,23.6,5.2c4.6,2.1,8.8,4.7,12.6,7.9C649.1,38,649.3,44.1,645.5,47.7z"/>
	</g>
	<path fill-rule="evenodd" clip-rule="evenodd" fill="#BBCCBB" d="M291.4,47.2c0-26-21.1-47.2-47.2-47.2c-15.7,0-31.4,0-47.2,0
		c0,15.7,0,31.4,0,47.2c0,26,21.1,47.2,47.2,47.2S291.4,73.2,291.4,47.2L291.4,47.2z"/>
	<g>
		<path fill="#444444" d="M0,62.8h8.1l18.7,44.3l19.5-44.3h1.4l19.6,44.3l19.1-44.3h8.2l-26.5,61.1h-1.5L47.1,80.2l-19.5,43.7h-1.5
			L0,62.8z"/>
		<path fill="#444444" d="M153.8,103.6l6.6,3.5c-2.2,4.3-4.7,7.7-7.5,10.3c-2.8,2.6-6,4.6-9.6,6c-3.6,1.4-7.6,2-12.1,2
			c-10,0-17.8-3.3-23.4-9.8c-5.6-6.5-8.4-13.9-8.4-22.1c0-7.7,2.4-14.7,7.1-20.7c6-7.7,14.1-11.6,24.2-11.6
			c10.4,0,18.7,3.9,24.9,11.8c4.4,5.6,6.7,12.5,6.7,20.9h-55c0.1,7.1,2.4,12.9,6.8,17.4c4.4,4.5,9.8,6.8,16.2,6.8
			c3.1,0,6.1-0.5,9.1-1.6c2.9-1.1,5.4-2.5,7.5-4.3S151.4,107.6,153.8,103.6z M153.8,87.2c-1-4.2-2.6-7.5-4.6-10
			c-2-2.5-4.7-4.5-8-6.1c-3.3-1.5-6.8-2.3-10.4-2.3c-6,0-11.1,1.9-15.5,5.8c-3.1,2.8-5.5,7-7.1,12.6H153.8z"/>
	</g>
	<g>
		<path fill="#444444" d="M176.1,123.9V39.3h7.9v34.1c3.3-4,7-7.1,11-9.1c4.1-2,8.5-3,13.4-3c8.6,0,16,3.1,22.1,9.4
			c6.1,6.3,9.2,13.9,9.2,22.8c0,8.8-3.1,16.4-9.3,22.6c-6.2,6.3-13.6,9.4-22.3,9.4c-5,0-9.5-1.1-13.5-3.2c-4-2.1-7.6-5.3-10.7-9.6
			v11.2H176.1z M207.6,117.9c4.4,0,8.4-1.1,12.1-3.2c3.7-2.2,6.6-5.2,8.8-9.1s3.3-8,3.3-12.3c0-4.3-1.1-8.5-3.3-12.4
			c-2.2-3.9-5.2-7-8.9-9.2c-3.7-2.2-7.7-3.3-11.9-3.3c-4.3,0-8.4,1.1-12.2,3.3c-3.9,2.2-6.8,5.1-8.9,8.8c-2.1,3.7-3.1,7.9-3.1,12.5
			c0,7.1,2.3,13,7,17.7C195.1,115.5,200.8,117.9,207.6,117.9z"/>
	</g>
</g>
</svg>
